<svg width="100" height="100" viewBox="0 0 100 100" fill="none" xmlns="http://www.w3.org/2000/svg">
<g clip-path="url(#clip0_3031_12925)">
<path d="M66.6667 0H33.3333C14.9238 0 0 14.9238 0 33.3333V66.6667C0 85.0762 14.9238 100 33.3333 100H66.6667C85.0762 100 100 85.0762 100 66.6667V33.3333C100 14.9238 85.0762 0 66.6667 0Z" fill="url(#paint0_linear_3031_12925)"/>
<path d="M66.8 50C66.8 40.7216 59.2784 33.2 50 33.2C40.7216 33.2 33.2 40.7216 33.2 50C33.2 59.2784 40.7216 66.8 50 66.8V71C38.402 71 29 61.598 29 50C29 38.402 38.402 29 50 29C61.598 29 71 38.402 71 50C71 61.598 61.598 71 50 71V66.8C59.2784 66.8 66.8 59.2784 66.8 50Z" fill="#80F17E"/>
<path d="M54.8357 44.2947C55.6671 43.4862 56.9967 43.5045 57.8053 44.3357C58.6138 45.1671 58.5955 46.4967 57.7643 47.3053L50.6562 54.2205C48.9754 55.855 46.2809 55.7947 44.6721 54.0893L42.1742 51.4396C41.3784 50.5961 41.4169 49.2701 42.2604 48.4742C42.9986 47.7777 44.1067 47.7195 44.9059 48.2814L45.2258 48.5604L47.7277 51.21L54.8357 44.2947Z" fill="#80F17E"/>
</g>
<defs>
<linearGradient id="paint0_linear_3031_12925" x1="0" y1="50" x2="100" y2="50" gradientUnits="userSpaceOnUse">
<stop stop-color="#28423E"/>
<stop offset="1" stop-color="#274044"/>
</linearGradient>
<clipPath id="clip0_3031_12925">
<rect width="100" height="100" fill="white"/>
</clipPath>
</defs>
</svg>
