<svg width="100" height="100" viewBox="0 0 100 100" fill="none" xmlns="http://www.w3.org/2000/svg">
<path d="M0 31.25C0 13.9911 13.9911 0 31.25 0H68.75C86.0089 0 100 13.9911 100 31.25V68.75C100 86.0089 86.0089 100 68.75 100H31.25C13.9911 100 0 86.0089 0 68.75V31.25Z" fill="url(#paint0_linear_3033_13066)"/>
<path d="M42.2353 64.1028C43.0719 64.9398 43.3648 66.1782 42.9906 67.3008L42.3497 69.2192C41.615 71.4229 38.8176 72.0832 37.175 70.4406L28.5369 61.8025C26.8954 60.1597 27.557 57.3644 29.7604 56.6299L31.6788 55.989C32.8017 55.6148 34.0399 55.9074 34.8768 56.7443L42.2353 64.1028ZM30.7466 59.5927L39.3847 68.2309L40.0256 66.3125L32.6671 58.954L30.7466 59.5927Z" fill="#BC85F9"/>
<path d="M64.5747 29.3366C65.5662 30.3285 65.5588 31.941 64.5574 32.923L52.8831 44.3643C52.0509 44.1831 51.1005 44.3731 50.5266 44.9469C49.709 45.7645 49.6602 47.3478 50.3756 48.2615L50.5288 48.4363C51.3466 49.2527 52.928 49.3039 53.8412 48.5895L54.016 48.4363C54.5833 47.8689 54.7759 46.9333 54.6051 46.1079L66.26 34.453C67.2073 33.5062 68.744 33.5059 69.6911 34.453C70.5418 35.3047 70.6324 36.6547 69.9349 37.6359C62.6238 47.9214 60.3161 55.726 59.5877 59.6273C59.295 61.1919 58.0537 62.5285 56.4717 62.7045L45.0433 63.9733L44.6916 63.9927C43.9874 63.9912 43.3048 63.7495 42.7538 63.3108L42.4905 63.0778L35.8916 56.4789L38.1013 54.2691L44.6981 60.8659L56.1264 59.5971C56.1312 59.5965 56.1449 59.5966 56.1696 59.5841C56.1967 59.5703 56.2386 59.5415 56.2883 59.4913C56.3959 59.3823 56.4833 59.221 56.5148 59.0533C57.1789 55.4963 58.9667 49.3456 63.7396 41.3928L57.7492 47.3832C57.6341 48.4121 57.2516 49.4728 56.4911 50.359L56.2257 50.646C55.071 51.8006 53.5445 52.215 52.2702 52.2148C50.9966 52.2143 49.4747 51.7995 48.3212 50.6482C47.1675 49.4945 46.7491 47.9671 46.7481 46.6927C46.7474 45.5782 47.0649 44.2718 47.9177 43.1882L48.3169 42.7372L48.6061 42.4696C49.5082 41.6964 50.5905 41.3139 51.6379 41.2073L58.0189 34.9515C49.8501 39.9277 43.5398 41.7779 39.9161 42.4545C39.7464 42.4862 39.5829 42.5736 39.4737 42.6811C39.4246 42.7297 39.3969 42.771 39.3831 42.7976C39.3706 42.8223 39.3706 42.8367 39.3702 42.8408L38.1013 54.2691L35.8916 56.4789L35.6564 56.2134C35.2178 55.6625 34.9763 54.9797 34.9745 54.2756L34.9939 53.9239L36.2628 42.4955C36.4167 41.1114 37.4595 39.9898 38.7659 39.5349L39.3421 39.3817C43.2349 38.6548 51.013 36.3546 61.2644 29.0819C62.2859 28.3575 63.6891 28.4511 64.5747 29.3366Z" fill="#BC85F9"/>
<defs>
<linearGradient id="paint0_linear_3033_13066" x1="0" y1="50" x2="100" y2="50" gradientUnits="userSpaceOnUse">
<stop stop-color="#352D57"/>
<stop offset="1" stop-color="#412C49"/>
</linearGradient>
</defs>
</svg>
