<svg width="24" height="24" viewBox="0 0 24 24" fill="none" xmlns="http://www.w3.org/2000/svg">
<rect width="24" height="24" rx="8" fill="url(#paint0_linear_3020_12788)"/>
<path d="M12.0997 6.70018C12.2288 6.528 12.4541 6.45731 12.6583 6.52537C12.8625 6.59343 13.0001 6.78477 13.0001 6.99998V10.5H16.0001C16.1895 10.5 16.3627 10.607 16.4474 10.7763C16.532 10.9456 16.5139 11.1483 16.4005 11.2998L11.9005 17.2998C11.7714 17.472 11.5461 17.5426 11.3419 17.4746C11.1377 17.4065 11.0001 17.2152 11.0001 17V13.5H8.00009C7.81071 13.5 7.63752 13.393 7.55283 13.2236C7.46819 13.0543 7.48628 12.8517 7.5997 12.7002L12.0997 6.70018ZM9.00009 12.5H11.5001C11.7762 12.5 12.0001 12.7238 12.0001 13V15.499L15.0001 11.5H12.5001C12.224 11.5 12.0001 11.2761 12.0001 11V8.49998L9.00009 12.5Z" fill="#70A3F3"/>
<defs>
<linearGradient id="paint0_linear_3020_12788" x1="0" y1="12" x2="24" y2="12" gradientUnits="userSpaceOnUse">
<stop stop-color="#26355A"/>
<stop offset="1" stop-color="#352E5B"/>
</linearGradient>
</defs>
</svg>
